<svg width="97" height="64" viewBox="0 0 97 64" fill="none" xmlns="http://www.w3.org/2000/svg">
<g filter="url(#filter0_d_175_17)">
<path fill-rule="evenodd" clip-rule="evenodd" d="M47.8216 3.09348C49.9795 6.30119 49.1285 10.6509 45.9208 12.8088L33.7435 21.0007H85.0135C88.8795 21.0007 92.0135 24.1347 92.0135 28.0007C92.0135 31.8667 88.8795 35.0007 85.0135 35.0007H33.9468L45.9208 43.0559C49.1285 45.2138 49.9795 49.5635 47.8216 52.7712C45.6637 55.9789 41.314 56.83 38.1063 54.6721L7.09348 33.8089C5.0661 32.445 3.98014 30.2056 4.00028 27.9324C3.98014 25.6591 5.0661 23.4197 7.09348 22.0558L38.1063 1.19266C41.314 -0.965245 45.6637 -0.114217 47.8216 3.09348Z" fill="#1E1E1E"/>
</g>
<defs>
<filter id="filter0_d_175_17" x="0" y="0" width="96.0134" height="63.8643" filterUnits="userSpaceOnUse" color-interpolation-filters="sRGB">
<feFlood flood-opacity="0" result="BackgroundImageFix"/>
<feColorMatrix in="SourceAlpha" type="matrix" values="0 0 0 0 0 0 0 0 0 0 0 0 0 0 0 0 0 0 127 0" result="hardAlpha"/>
<feOffset dy="4"/>
<feGaussianBlur stdDeviation="2"/>
<feComposite in2="hardAlpha" operator="out"/>
<feColorMatrix type="matrix" values="0 0 0 0 0 0 0 0 0 0 0 0 0 0 0 0 0 0 0.25 0"/>
<feBlend mode="normal" in2="BackgroundImageFix" result="effect1_dropShadow_175_17"/>
<feBlend mode="normal" in="SourceGraphic" in2="effect1_dropShadow_175_17" result="shape"/>
</filter>
</defs>
</svg>
