<?xml version="1.0" encoding="UTF-8"?><svg id="Layer_1" xmlns="http://www.w3.org/2000/svg" viewBox="0 0 72 72"><defs><style>.cls-1{fill:#fffbfb;}.cls-1,.cls-2{fill-rule:evenodd;}</style></defs><path class="cls-2" d="m36,72h0c19.88,0,36-16.12,36-36h0C72,16.12,55.88,0,36,0h0C16.12,0,0,16.12,0,36h0c0,19.88,16.12,36,36,36Z"/><path class="cls-1" d="m59,57h-9.04v-15.4c0-4.22-1.6-6.58-4.95-6.58-3.64,0-5.53,2.46-5.53,6.58v15.4h-8.71v-29.33h8.71v3.95s2.62-4.85,8.84-4.85,10.68,3.8,10.68,11.66v18.57ZM20.37,23.83c-2.97,0-5.37-2.42-5.37-5.41s2.4-5.41,5.37-5.41,5.37,2.42,5.37,5.41-2.4,5.41-5.37,5.41Zm-4.5,33.17h9.09v-29.33h-9.09v29.33Z"/></svg>